<svg width="47" height="47" viewBox="0 0 47 47" fill="none" xmlns="http://www.w3.org/2000/svg">
<g id="Group">
<path id="Vector" d="M21.8665 0.0595299C18.3518 0.391535 15.5699 1.17003 12.7879 2.57819C10.3608 3.81462 8.59777 5.13119 6.58285 7.20335C4.0184 9.84794 2.35838 12.5841 1.20209 16.0186C0.343453 18.606 0 20.7468 0 23.4716C0 36.4312 10.4639 46.8951 23.4464 46.918C25.9536 46.918 28.3005 46.5402 30.7963 45.7044C38.8216 43.0484 44.7405 36.3396 46.412 28.0166C47.946 20.3805 45.5533 12.4582 40.0352 6.92859C36.8182 3.70013 32.525 1.38755 28.1059 0.49457C25.9879 0.0709784 23.5151 -0.100748 21.8665 0.0595299ZM13.9098 6.68817C11.2996 8.41689 9.77696 12.1949 10.4753 15.1829C10.8417 16.7284 11.6202 17.8504 13.3832 19.3043C14.9173 20.598 16.6002 22.3382 17.3787 23.4716C18.0084 24.3989 18.8327 26.0246 18.9472 26.597C19.0158 26.8832 18.9701 26.8489 18.6838 26.368C18.5007 26.0475 18.2259 25.6926 18.0885 25.5666L17.8367 25.3377L18.0656 25.7956C18.3862 26.4138 18.6609 27.5014 18.6495 28.1425V28.6577L18.4434 28.0052C18.3289 27.6388 18.1114 27.158 17.974 26.9176C17.6649 26.3795 16.9093 25.3835 16.8635 25.4407C16.8406 25.4636 16.978 25.8071 17.1612 26.2078C17.539 27.0206 17.7909 27.8678 17.9168 28.8294L17.9969 29.4591L17.7565 29.2416C17.6306 29.1271 17.4589 28.8523 17.3787 28.6463C17.2413 28.2456 17.0009 28.0967 17.0925 28.4516C17.1269 28.5661 17.1841 28.8638 17.2299 29.1042C17.3215 29.6423 17.768 30.5696 18.1 30.9016C18.4549 31.2565 18.306 31.268 17.8367 30.936C17.1727 30.4551 16.3484 29.1729 15.8675 27.8678C15.7073 27.4098 15.6844 27.7991 15.8446 28.6119C16.1881 30.4208 16.9208 31.8404 18.1916 33.2142C19.0273 34.1072 19.5196 34.7941 19.9088 35.5726L20.1721 36.0649L19.7829 35.7786C19.2792 35.4008 18.3518 34.9429 16.3598 34.0957C13.5092 32.8822 11.6545 31.6801 9.9029 29.917C8.84964 28.8409 7.64755 27.1465 7.09803 25.9215C6.73168 25.1087 6.70878 24.811 7.04079 25.3262C7.25831 25.6468 8.52908 26.6542 8.73516 26.6542C8.80385 26.6542 8.7466 26.5398 8.62067 26.4024C8.17418 25.8986 7.40714 24.6622 6.9721 23.7349C6.43402 22.59 6.02188 21.0789 5.82725 19.5906C5.68987 18.4343 5.74711 15.4462 5.93029 14.8051C6.02188 14.496 6.03333 14.5189 6.10202 15.1486C6.14781 15.5264 6.25085 16.0644 6.34243 16.3507L6.50271 16.8658L6.51416 16.156C6.53706 14.5304 7.12093 12.6643 8.0597 11.1416C8.68936 10.1456 8.84964 9.99677 8.63212 10.6264C8.44894 11.176 8.20853 12.6299 8.27722 12.836C8.30012 12.9047 8.3917 12.7673 8.47184 12.5154C8.55198 12.2636 8.7924 11.6911 9.02137 11.2561C10.0174 9.25262 11.3568 7.86736 13.326 6.82555C14.2762 6.32182 14.5624 6.25313 13.9098 6.68817ZM32.09 6.74542C33.5439 7.47811 34.9406 8.6802 35.8222 9.97387C36.2572 10.615 37.0929 12.3437 37.0929 12.607C37.0929 12.71 37.1502 12.8245 37.2189 12.8703C37.4364 12.9963 37.1502 11.2332 36.8067 10.3402C36.6121 9.80215 37.3448 10.8669 37.8829 11.8858C38.5583 13.1794 38.9018 14.3472 39.0163 15.7897L39.1079 16.8658L39.3025 16.0415C39.4055 15.5836 39.4971 15.0455 39.5085 14.8395L39.52 14.4617L39.623 14.8624C39.6803 15.0799 39.7604 16.0072 39.7948 16.9231C39.8863 18.9609 39.6688 20.6667 39.0964 22.384C38.6156 23.8265 38.2149 24.6393 37.402 25.7613C37.0471 26.2535 36.7953 26.6542 36.8411 26.6542C37.0013 26.6542 37.5051 26.2764 38.1576 25.6353C38.753 25.0629 38.8102 25.0286 38.6957 25.3377C38.0546 27.0893 36.4976 29.2301 34.8261 30.707C33.292 32.0465 31.5862 33.0768 29.2851 34.0499C27.5907 34.7712 26.32 35.3894 25.8506 35.71C25.6903 35.8359 25.53 35.9275 25.4957 35.9275C25.2781 35.9275 26.4344 34.2331 27.2702 33.3287C28.4036 32.0922 29.1592 30.7757 29.5255 29.3904C29.743 28.5547 29.9148 27.6159 29.8232 27.696C29.8003 27.7189 29.5255 28.257 29.205 28.8981C28.7699 29.7568 28.4723 30.2033 27.9914 30.6497C27.3389 31.268 26.9496 31.3824 27.5106 30.7986C27.8884 30.4093 28.2318 29.6308 28.3692 28.8523C28.4837 28.1769 28.3921 28.0624 28.186 28.6463C28.1059 28.8523 27.9342 29.1271 27.7968 29.2416L27.5564 29.4591L27.6365 28.8294C27.7625 27.8449 28.0372 26.8832 28.4036 26.1505C28.5867 25.7727 28.7127 25.4522 28.6898 25.4293C28.6211 25.3491 27.7396 26.5856 27.4304 27.1923C27.2702 27.5243 27.087 27.9937 27.0298 28.2227L26.9267 28.6577L26.9153 28.0853C26.9038 27.4327 27.1328 26.5054 27.4533 25.8414C27.8769 24.9942 27.4076 25.4522 26.8351 26.4596C26.4459 27.1351 26.5031 26.7573 26.9382 25.6697C27.7167 23.7463 29.743 21.3078 32.2502 19.2471C34.3339 17.5298 35.2612 15.7897 35.2612 13.603C35.2497 10.947 33.7614 8.08488 31.6549 6.68817C31.0482 6.28748 31.2199 6.31037 32.09 6.74542ZM25.5873 15.4577C25.4155 16.2133 25.2209 16.4651 24.763 16.4651H24.3508L24.6828 16.2133C25.095 15.8927 25.2781 15.6752 25.4155 15.3432C25.5758 14.9654 25.6788 15.0341 25.5873 15.4577ZM24.3394 15.6408C24.2478 15.824 23.973 16.1446 23.7441 16.3507L23.309 16.7284L22.0726 16.6483C21.3513 16.6025 20.8362 16.614 20.8362 16.6827C20.8362 16.8658 21.1796 16.9231 22.2443 16.9231C23.538 16.9231 24.1905 17.1864 24.9805 18.0336C26.0337 19.167 26.6062 20.8499 26.8237 23.4487C26.8695 23.9639 26.8695 23.9639 26.2513 24.3417C24.9805 25.1316 23.6868 26.5741 22.9656 27.9937C21.8322 30.249 21.7062 33.4203 22.6107 36.5113C22.7595 37.038 22.8969 37.5188 22.8969 37.5646C22.8969 37.6218 22.6908 37.4158 22.4275 37.1181C19.0044 33.157 18.3404 29.1157 20.6415 26.2764C22.4618 24.0554 22.977 22.2122 22.2329 20.6438C21.6375 19.4074 20.2294 18.2282 19.096 18.0221C18.7067 17.9534 18.0771 18.045 17.6077 18.2396C17.0925 18.4457 17.5619 17.1406 18.1114 16.8086C18.2946 16.6941 18.7067 16.5682 19.0273 16.5338C19.4623 16.4766 19.6684 16.3735 19.8745 16.1217C20.2637 15.6637 20.8934 15.5836 22.1298 15.8355C23.2403 16.053 23.6983 15.9729 24.1562 15.492C24.4882 15.1371 24.5683 15.1944 24.3394 15.6408ZM26.1368 16.8544L26.9153 16.9918L26.4688 17.2436C25.862 17.5756 25.2209 17.5642 24.5454 17.2093C24.2478 17.049 23.9387 16.9231 23.8471 16.9231C23.7555 16.9231 23.7212 16.8658 23.7555 16.8086C23.8471 16.6598 25.1637 16.6827 26.1368 16.8544ZM25.8506 25.2804C25.5071 25.6582 24.9805 26.3909 24.6828 26.9061C22.5305 30.7184 23.1716 34.8513 26.4802 38.4118L27.19 39.1788L26.5031 38.7896C25.6559 38.3202 24.8774 37.7936 24.5912 37.5074C24.4653 37.3814 24.3508 37.3013 24.3279 37.3242C24.305 37.3471 24.3852 37.6676 24.5111 38.034C25.3812 40.5984 24.8774 43.1743 23.2174 44.6741C22.3931 45.4182 22.1642 45.5213 22.8053 44.8458C23.3434 44.2848 23.7555 43.4834 24.0074 42.5332C24.2936 41.4113 24.1562 40.3809 23.4693 38.366C22.5878 35.8015 22.3931 34.7368 22.3931 32.5502C22.4046 31.0275 22.4389 30.5582 22.645 29.814C23.1602 27.9479 24.1791 26.3108 25.5186 25.2117C25.9307 24.8683 26.3085 24.5935 26.3657 24.5935C26.423 24.5935 26.1826 24.9026 25.8506 25.2804ZM25.6445 26.368C25.198 27.3755 24.7859 28.7035 24.5454 29.9285C24.3394 31.0046 24.2592 33.4203 24.4081 34.3247C24.5454 35.0917 24.3165 34.6338 24.0303 33.5576C23.6754 32.2182 23.6983 30.4666 24.0875 29.1386C24.2592 28.5776 24.5225 27.8563 24.6943 27.5358C24.9919 26.929 25.8391 25.6239 25.9307 25.6239C25.9536 25.6239 25.8277 25.9559 25.6445 26.368ZM21.0537 35.8015C21.3284 36.2137 21.878 36.9464 22.2787 37.4158C23.2976 38.6064 23.5265 39.1101 23.5265 40.1062C23.5265 41.1251 23.1716 41.915 22.3359 42.7965L21.7406 43.4262L22.1069 42.8652C22.8854 41.686 23.1258 40.587 22.8396 39.6482C22.6336 39.0185 22.4389 38.8125 22.4389 39.2475C22.4389 39.5566 21.7978 40.2435 21.2483 40.5297L20.7789 40.7587L21.1453 40.3809C21.5803 39.923 21.8665 39.2819 21.8665 38.7667C21.8665 38.5606 21.7062 38.0569 21.5116 37.6447C21.1682 36.9235 20.4126 35.1261 20.3095 34.7826C20.2408 34.588 20.3324 34.7025 21.0537 35.8015Z" fill="#F3F3F3"/>
</g>
</svg>
